<?xml version="1.0" encoding="UTF-8" standalone="no"?>
<!-- Created with Inkscape (http://www.inkscape.org/) -->

<svg
   version="1.1"
   id="svg1"
   width="346.94666"
   height="602.40002"
   viewBox="0 0 346.94666 602.40002"
   sodipodi:docname="Ara_Logo_Primary_Colour.eps"
   xmlns:inkscape="http://www.inkscape.org/namespaces/inkscape"
   xmlns:sodipodi="http://sodipodi.sourceforge.net/DTD/sodipodi-0.dtd"
   xmlns="http://www.w3.org/2000/svg"
   xmlns:svg="http://www.w3.org/2000/svg">
  <defs
     id="defs1" />
  <sodipodi:namedview
     id="namedview1"
     pagecolor="#ffffff"
     bordercolor="#000000"
     borderopacity="0.25"
     inkscape:showpageshadow="2"
     inkscape:pageopacity="0.0"
     inkscape:pagecheckerboard="0"
     inkscape:deskcolor="#d1d1d1">
    <inkscape:page
       x="0"
       y="0"
       inkscape:label="1"
       id="page1"
       width="346.94666"
       height="602.40002"
       margin="0"
       bleed="0" />
  </sodipodi:namedview>
  <g
     id="g1"
     inkscape:groupmode="layer"
     inkscape:label="1">
    <g
       id="group-R5">
      <path
         id="path2"
         d="m 1621.04,2785.47 -300.49,-521.61 h 600.89 z"
         style="fill:#06647a;fill-opacity:1;fill-rule:nonzero;stroke:none"
         transform="matrix(0.13333333,0,0,-0.13333333,0,602.4)" />
      <path
         id="path3"
         d="m 2301.49,2785.16 -300.17,-521.3 h 600.77 z"
         style="fill:#06647a;fill-opacity:1;fill-rule:nonzero;stroke:none"
         transform="matrix(0.13333333,0,0,-0.13333333,0,602.4)" />
      <path
         id="path4"
         d="M 1280.29,2286.93 979.586,2808.64 H 1580.71 Z"
         style="fill:#5dafcb;fill-opacity:1;fill-rule:nonzero;stroke:none"
         transform="matrix(0.13333333,0,0,-0.13333333,0,602.4)" />
      <path
         id="path5"
         d="m 1961.39,2286.93 -300.35,521.71 h 600.82 z"
         style="fill:#3a9eae;fill-opacity:1;fill-rule:nonzero;stroke:none"
         transform="matrix(0.13333333,0,0,-0.13333333,0,602.4)" />
      <path
         id="path6"
         d="M 1961.19,3376.61 2261.86,2854.9 H 1661.04 Z"
         style="fill:#73cfba;fill-opacity:1;fill-rule:nonzero;stroke:none"
         transform="matrix(0.13333333,0,0,-0.13333333,0,602.4)" />
      <path
         id="path7"
         d="m 1621.01,2878.25 -300.52,521.71 h 601.04 z"
         style="fill:#bfe7b6;fill-opacity:1;fill-rule:nonzero;stroke:none"
         transform="matrix(0.13333333,0,0,-0.13333333,0,602.4)" />
      <path
         id="path8"
         d="M 1298.66,4518.02 1606.92,3985.92 614.25,2263.86 H 0.0390625 L 1298.66,4518.02"
         style="fill:#294d62;fill-opacity:1;fill-rule:nonzero;stroke:none"
         transform="matrix(0.13333333,0,0,-0.13333333,0,602.4)" />
      <path
         id="path9"
         d="M 0.488281,474.988 H 19.8594 V 646.621 H 0.488281 Z m 54.179719,0 h 18.8828 v 72.582 c 0,23.782 16.1836,39.719 38.0002,39.719 22.312,0 35.062,-14.707 35.062,-38.25 v -74.051 h 18.875 v 78.711 c 0,30.153 -17.898,50.75 -48.539,50.75 -21.824,0 -35.0662,-11.027 -43.3982,-24.758 V 601.75 H 54.668 Z m 185.602,-2.457 c 25.265,0 45.113,13.989 45.113,38.008 v 0.492 c 0,22.809 -21.078,30.41 -40.699,36.289 -16.914,5.149 -32.602,9.801 -32.602,21.821 v 0.48 c 0,10.559 9.559,18.399 24.512,18.399 12.261,0 25.746,-4.668 37.519,-12.258 l 8.578,14.218 c -12.996,8.579 -30.16,13.981 -45.609,13.981 -25,0 -43.148,-14.473 -43.148,-36.289 v -0.492 c 0,-23.289 22.07,-30.16 41.925,-35.801 16.672,-4.649 31.633,-9.559 31.633,-22.309 v -0.488 c 0,-12.262 -11.039,-20.102 -26.238,-20.102 -14.953,0 -30.164,5.879 -43.895,16.18 l -9.558,-13.488 c 14.222,-11.524 34.332,-18.641 52.469,-18.641 m 117.679,0.258 c 9.074,0 16.192,1.961 22.805,5.391 v 16.179 c -6.613,-3.187 -12.012,-4.41 -18.383,-4.41 -12.75,0 -21.328,5.641 -21.328,21.082 v 74.051 h 40.211 V 601.75 H 341.043 V 640 H 322.16 v -38.25 h -17.656 v -16.668 h 17.656 v -76.5 c 0,-25.742 15.445,-35.793 35.789,-35.793 m 54.684,156.672 h 21.578 v 20.84 h -21.578 z m 1.222,-154.473 H 432.73 V 601.75 h -18.875 z m 102.731,-2.199 c 9.066,0 16.176,1.961 22.797,5.391 v 16.179 c -6.621,-3.187 -12.012,-4.41 -18.391,-4.41 -12.75,0 -21.332,5.641 -21.332,21.082 v 74.051 h 40.211 V 601.75 H 499.66 V 640 h -18.879 v -38.25 h -17.648 v -16.668 h 17.648 v -76.5 c 0,-25.742 15.449,-35.793 35.805,-35.793 m 95.855,-0.488 c 21.832,0 34.821,11.031 43.403,24.758 v -22.071 h 18.64 V 601.75 h -18.64 v -72.578 c 0,-23.774 -16.434,-39.711 -38,-39.711 -22.309,0 -35.063,14.711 -35.063,38.25 v 74.039 h -18.879 v -78.699 c 0,-30.16 17.903,-50.75 48.539,-50.75 m 139.508,0.488 c 9.074,0 16.184,1.961 22.805,5.391 v 16.179 c -6.621,-3.187 -12.012,-4.41 -18.379,-4.41 -12.754,0 -21.344,5.641 -21.344,21.082 v 74.051 h 40.211 V 601.75 H 735.031 V 640 h -18.867 v -38.25 h -17.66 v -16.668 h 17.66 v -76.5 c 0,-25.742 15.438,-35.793 35.785,-35.793 m 56.914,57.859 h 100.52 c 0.25,2.942 0.25,4.903 0.25,6.622 0,37.269 -21.578,67.179 -59.09,67.179 -35.063,0 -60.809,-29.429 -60.809,-66.199 0,-39.48 28.446,-66.199 63.254,-66.199 24.035,0 39.485,9.558 52.235,23.781 l -11.77,10.547 C 883.152,495.59 870.891,488.48 853.484,488.48 c -22.308,0 -41.921,15.442 -44.621,42.168 m 0,15.192 c 2.7,24.531 19.371,42.672 41.188,42.672 25.008,0 38.25,-19.614 40.449,-42.672 z m 260.377,-73.789 c 38.25,0 66.44,30.398 66.44,66.199 v 0.488 c 0,35.801 -27.95,65.711 -65.95,65.711 -38.25,0 -66.2,-30.398 -66.2,-66.199 v -0.488 c 0,-35.801 27.71,-65.711 65.71,-65.711 m 0.49,16.918 c -26.73,0 -46.83,22.062 -46.83,49.281 v 0.488 c 0,26.711 18.88,49.043 46.34,49.043 26.72,0 47.07,-22.332 47.07,-49.531 v -0.488 c 0,-26.731 -19.12,-48.793 -46.58,-48.793 m 99.79,-13.981 h 18.88 v 110.094 h 39.96 v 16.168 h -40.21 v 10.309 c 0,18.14 7.36,26.972 22.07,26.972 6.37,0 11.52,-1.23 18.39,-3.191 v 16.43 c -6.13,2.21 -12.02,3.191 -20.84,3.191 -11.53,0 -20.85,-3.441 -27.22,-9.813 -7.11,-7.109 -11.03,-18.136 -11.03,-32.617 v -11.019 h -17.41 v -16.43 h 17.41 z m 238.06,-2.937 c 31.14,0 50.76,12.008 68.65,30.16 l -12.75,12.5 c -16.42,-15.691 -31.87,-24.762 -55.41,-24.762 -37.75,0 -66.44,31.141 -66.44,70.86 v 0.492 c 0,39.469 28.44,70.359 66.44,70.359 23.3,0 39.48,-9.801 53.94,-23.531 l 13.24,14.223 c -17.16,16.179 -35.79,27.207 -66.93,27.207 -50.51,0 -86.8,-40.207 -86.8,-88.75 v -0.489 c 0,-49.289 36.54,-88.269 86.06,-88.269 m 134.61,0.25 c 22.31,0 36.77,10.289 45.6,21.57 v -18.883 h 18.63 v 77.481 c 0,16.179 -4.41,28.441 -13.24,37.269 -9.07,9.071 -23.04,13.973 -40.94,13.973 -18.64,0 -32.12,-4.41 -46.1,-10.789 l 5.64,-15.442 c 11.77,5.391 23.54,9.071 38.5,9.071 23.78,0 37.51,-11.77 37.51,-34.321 v -3.929 c -11.28,3.187 -22.56,5.398 -38.74,5.398 -32.12,0 -54.18,-14.219 -54.18,-41.437 v -0.492 c 0,-25.989 23.53,-39.469 47.32,-39.469 m 3.67,15.199 c -17.16,0 -31.87,9.309 -31.87,25.25 v 0.488 c 0,15.203 13.49,25.5 37.02,25.5 15.45,0 27.71,-2.699 37.03,-5.398 v -11.762 c 0,-20.109 -18.88,-34.078 -42.18,-34.078 m 88.27,-12.512 h 18.88 v 72.582 c 0,23.782 16.18,39.719 38,39.719 22.31,0 35.06,-14.707 35.06,-38.25 v -74.051 h 18.88 v 78.711 c 0,30.153 -17.9,50.75 -48.55,50.75 -21.82,0 -35.06,-11.027 -43.39,-24.758 v 22.059 h -18.88 z m 181.19,-2.199 c 9.07,0 16.18,1.961 22.8,5.391 v 16.179 c -6.62,-3.187 -12.02,-4.41 -18.39,-4.41 -12.75,0 -21.33,5.641 -21.33,21.082 v 74.051 h 40.21 V 601.75 H 1798.4 V 640 h -18.88 v -38.25 h -17.65 v -16.668 h 17.65 v -76.5 c 0,-25.742 15.45,-35.793 35.8,-35.793 m 56.9,57.859 h 100.53 c 0.24,2.942 0.24,4.903 0.24,6.622 0,37.269 -21.57,67.179 -59.09,67.179 -35.06,0 -60.8,-29.429 -60.8,-66.199 0,-39.48 28.44,-66.199 63.26,-66.199 24.02,0 39.48,9.558 52.22,23.781 l -11.77,10.547 c -10.3,-10.789 -22.56,-17.899 -39.96,-17.899 -22.31,0 -41.93,15.442 -44.63,42.168 m 0,15.192 c 2.7,24.531 19.37,42.672 41.19,42.672 25.01,0 38.26,-19.614 40.46,-42.672 z m 126.53,-70.852 h 18.87 V 525.5 c 0,38.25 22.55,58.109 50.26,58.109 h 1.47 v 20.352 c -24.03,0.98 -42.42,-14.223 -51.73,-35.313 v 33.102 h -18.87 z m 159.36,-2.687 c 30.65,0 60.55,24.508 60.55,65.949 v 0.488 c 0,41.684 -30.15,65.711 -60.55,65.711 -23.3,0 -38.25,-13 -48.55,-28.199 v 77.73 h -18.88 V 474.988 h 18.88 v 24.282 c 9.81,-14.219 25.01,-26.969 48.55,-26.969 m -3.44,16.898 c -23.54,0 -45.85,19.633 -45.85,49.051 v 0.488 c 0,28.934 22.31,48.782 45.85,48.782 24.03,0 44.63,-19.11 44.63,-49.032 V 538 c 0,-30.641 -20.1,-48.801 -44.63,-48.801 m 133.13,-16.898 c 21.83,0 34.82,11.031 43.4,24.758 v -22.071 h 18.63 V 601.75 h -18.63 v -72.578 c 0,-23.774 -16.43,-39.711 -38,-39.711 -22.3,0 -35.06,14.711 -35.06,38.25 v 74.039 h -18.88 v -78.699 c 0,-30.16 17.9,-50.75 48.54,-50.75 m 97.09,2.687 h 18.89 V 525.5 c 0,38.25 22.55,58.109 50.26,58.109 h 1.47 v 20.352 c -24.03,0.98 -42.42,-14.223 -51.73,-35.313 v 33.102 h -18.89 z m 121.38,-39.968 c 19.11,0 31.37,9.562 42.16,35.8 l 53.21,130.93 h -20.11 l -40.69,-105.668 -46.1,105.668 h -20.84 l 57.61,-126.27 c -7.6,-17.898 -14.71,-23.789 -25.99,-23.789 -8.09,0 -13.73,1.481 -19.86,4.668 l -6.37,-14.961 c 8.58,-4.168 16.43,-6.378 26.98,-6.378"
         style="fill:#294d62;fill-opacity:1;fill-rule:nonzero;stroke:none"
         transform="matrix(0.13333333,0,0,-0.13333333,0,602.4)" />
      <path
         id="path10"
         d="m 254.031,25.9492 h 17.227 l 17.648,39.3516 h 81.043 l 17.442,-39.3516 h 18.078 L 337.617,175.898 h -15.738 z m 41.477,54.4492 34.031,75.9336 33.82,-75.9336 z M 423.547,25.9492 h 16.383 v 43.8203 c 0,33.1795 19.558,50.4105 43.597,50.4105 h 1.286 v 17.652 c -20.856,0.848 -36.805,-12.34 -44.883,-30.633 v 28.711 h -16.383 z m 117.851,-2.3398 c 19.36,0 31.911,8.9297 39.571,18.7226 V 25.9492 h 16.164 v 67.211 c 0,14.0388 -3.836,24.6798 -11.492,32.3318 -7.871,7.867 -19.989,12.129 -35.524,12.129 -16.16,0 -27.859,-3.832 -39.98,-9.359 l 4.894,-13.403 c 10.211,4.68 20.418,7.871 33.391,7.871 20.629,0 32.547,-10.21 32.547,-29.7808 v -3.3984 c -9.789,2.7578 -19.571,4.6797 -33.61,4.6797 -27.859,0 -47.011,-12.3399 -47.011,-35.9492 v -0.4297 c 0,-22.543 20.422,-34.2422 41.05,-34.2422 m 3.188,13.1914 c -14.875,0 -27.645,8.0781 -27.645,21.9101 v 0.418 c 0,13.1914 11.7,22.1211 32.118,22.1211 13.398,0 24.039,-2.3398 32.121,-4.6797 V 66.3594 c 0,-17.4375 -16.383,-29.5586 -36.594,-29.5586 M 699.859,25.9492 h 16.379 v 43.8203 c 0,33.1795 19.571,50.4105 43.602,50.4105 h 1.281 v 17.652 c -20.851,0.848 -36.805,-12.34 -44.883,-30.633 v 28.711 h -16.379 z m 117.848,-2.3398 c 19.359,0 31.914,8.9297 39.57,18.7226 V 25.9492 h 16.161 v 67.211 c 0,14.0388 -3.829,24.6798 -11.477,32.3318 -7.871,7.867 -20,12.129 -35.535,12.129 -16.156,0 -27.856,-3.832 -39.981,-9.359 l 4.895,-13.403 c 10.211,4.68 20.418,7.871 33.387,7.871 20.632,0 32.55,-10.21 32.55,-29.7808 v -3.3984 c -9.789,2.7578 -19.57,4.6797 -33.609,4.6797 -27.859,0 -47.012,-12.3399 -47.012,-35.9492 v -0.4297 c 0,-22.543 20.422,-34.2422 41.051,-34.2422 m 3.191,13.1914 c -14.882,0 -27.648,8.0781 -27.648,21.9101 v 0.418 c 0,13.1914 11.699,22.1211 32.117,22.1211 13.403,0 24.043,-2.3398 32.121,-4.6797 V 66.3594 c 0,-17.4375 -16.379,-29.5586 -36.59,-29.5586 M 944.27,23.6094 c 18.929,0 30.199,9.5703 37.652,21.4804 V 25.9492 h 16.156 V 135.91 H 981.922 V 72.9609 C 981.922,52.3203 967.656,38.5 948.945,38.5 c -19.359,0 -30.418,12.7617 -30.418,33.1797 V 135.91 H 902.148 V 67.6406 c 0,-26.1601 15.528,-44.0312 42.122,-44.0312 M 1020.41,0 c 16.17,3.62109 23.61,11.9102 23.61,29.1406 v 19.1407 h -19.57 V 25.9492 h 7.66 c 0.85,-9.1484 -3.61,-14.6797 -14.25,-18.49998 z m 158.67,24.0391 c 7.87,0 14.04,1.7031 19.78,4.6797 V 42.75 c -5.74,-2.7617 -10.42,-3.8281 -15.95,-3.8281 -11.06,0 -18.5,4.8984 -18.5,18.2969 v 64.2302 h 34.88 v 14.461 h -34.88 v 33.192 h -16.38 V 135.91 h -15.32 v -14.461 h 15.32 V 55.0898 c 0,-22.3281 13.4,-31.0507 31.05,-31.0507 m 81.89,-0.4297 c 19.35,0 31.9,8.9297 39.56,18.7226 V 25.9492 h 16.17 v 67.211 c 0,14.0388 -3.83,24.6798 -11.49,32.3318 -7.87,7.867 -19.99,12.129 -35.52,12.129 -16.17,0 -27.86,-3.832 -39.99,-9.359 l 4.89,-13.403 c 10.21,4.68 20.42,7.871 33.4,7.871 20.63,0 32.54,-10.21 32.54,-29.7808 v -3.3984 c -9.78,2.7578 -19.57,4.6797 -33.61,4.6797 -27.86,0 -47,-12.3399 -47,-35.9492 v -0.4297 c 0,-22.543 20.42,-34.2422 41.05,-34.2422 m 3.19,13.1914 c -14.89,0 -27.65,8.0781 -27.65,21.9101 v 0.418 c 0,13.1914 11.7,22.1211 32.12,22.1211 13.4,0 24.03,-2.3398 32.11,-4.6797 V 66.3594 c 0,-17.4375 -16.37,-29.5586 -36.58,-29.5586 m 123.36,-13.1914 c 18.93,0 30.21,9.5703 37.65,21.4804 V 25.9492 h 16.16 V 135.91 h -16.16 V 72.9609 c 0,-20.6406 -14.25,-34.4609 -32.97,-34.4609 -19.35,0 -30.41,12.7617 -30.41,33.1797 V 135.91 h -16.38 V 67.6406 c 0,-26.1601 15.53,-44.0312 42.11,-44.0312 m 86.36,2.3398 h 16.37 v 62.75 c 0,20.1988 13.19,34.6718 30.63,34.6718 17.44,0 28.29,-12.133 28.29,-32.7616 V 25.9492 h 16.17 V 89.332 c 0,21.699 13.82,34.039 30.41,34.039 17.87,0 28.5,-11.922 28.5,-33.1913 V 25.9492 h 16.38 v 68.0625 c 0,27.2263 -15.52,44.2383 -40.84,44.2383 -19.14,0 -30.84,-9.781 -38.71,-21.898 -5.95,12.328 -17.44,21.898 -35.3,21.898 -18.51,0 -28.29,-9.988 -35.53,-20.84 v 18.5 h -16.37 z m 230.77,-2.3398 c 19.36,0 31.91,8.9297 39.56,18.7226 V 25.9492 h 16.17 v 67.211 c 0,14.0388 -3.83,24.6798 -11.49,32.3318 -7.87,7.867 -19.99,12.129 -35.52,12.129 -16.16,0 -27.86,-3.832 -39.99,-9.359 l 4.9,-13.403 c 10.21,4.68 20.42,7.871 33.39,7.871 20.63,0 32.54,-10.21 32.54,-29.7808 v -3.3984 c -9.78,2.7578 -19.57,4.6797 -33.6,4.6797 -27.87,0 -47.01,-12.3399 -47.01,-35.9492 v -0.4297 c 0,-22.543 20.42,-34.2422 41.05,-34.2422 m 3.19,13.1914 c -14.89,0 -27.65,8.0781 -27.65,21.9101 v 0.418 c 0,13.1914 11.7,22.1211 32.12,22.1211 13.4,0 24.03,-2.3398 32.12,-4.6797 V 66.3594 c 0,-17.4375 -16.38,-29.5586 -36.59,-29.5586 m 118.71,-12.7617 c 7.87,0 14.04,1.7031 19.77,4.6797 V 42.75 c -5.73,-2.7617 -10.41,-3.8281 -15.94,-3.8281 -11.06,0 -18.51,4.8984 -18.51,18.2969 v 64.2302 h 34.88 v 14.461 h -34.88 v 33.192 H 1795.5 V 135.91 h -15.32 v -14.461 h 15.32 V 55.0898 c 0,-22.3281 13.4,-31.0507 31.05,-31.0507 m 81.88,-0.4297 c 19.36,0 31.91,8.9297 39.56,18.7226 V 25.9492 h 16.17 v 67.211 c 0,14.0388 -3.82,24.6798 -11.48,32.3318 -7.87,7.867 -19.99,12.129 -35.53,12.129 -16.16,0 -27.86,-3.832 -39.99,-9.359 l 4.9,-13.403 c 10.21,4.68 20.42,7.871 33.4,7.871 20.63,0 32.53,-10.21 32.53,-29.7808 v -3.3984 c -9.77,2.7578 -19.57,4.6797 -33.6,4.6797 -27.86,0 -47,-12.3399 -47,-35.9492 v -0.4297 c 0,-22.543 20.42,-34.2422 41.04,-34.2422 m 3.2,13.1914 c -14.89,0 -27.65,8.0781 -27.65,21.9101 v 0.418 c 0,13.1914 11.7,22.1211 32.11,22.1211 13.4,0 24.04,-2.3398 32.12,-4.6797 V 66.3594 c 0,-17.4375 -16.38,-29.5586 -36.58,-29.5586 m 146.76,-10.8516 h 16.37 v 43.8203 c 0,33.1795 19.57,50.4105 43.61,50.4105 h 1.27 v 17.652 c -20.84,0.848 -36.79,-12.34 -44.88,-30.633 v 28.711 h -16.37 z m 113.6,-2.3398 c 19.34,0 31.9,8.9297 39.56,18.7226 V 25.9492 h 16.16 v 67.211 c 0,14.0388 -3.82,24.6798 -11.48,32.3318 -7.87,7.867 -20,12.129 -35.52,12.129 -16.17,0 -27.87,-3.832 -39.99,-9.359 l 4.89,-13.403 c 10.21,4.68 20.42,7.871 33.4,7.871 20.63,0 32.54,-10.21 32.54,-29.7808 v -3.3984 c -9.8,2.7578 -19.57,4.6797 -33.61,4.6797 -27.87,0 -47.01,-12.3399 -47.01,-35.9492 v -0.4297 c 0,-22.543 20.42,-34.2422 41.06,-34.2422 m 3.19,13.1914 c -14.89,0 -27.65,8.0781 -27.65,21.9101 v 0.418 c 0,13.1914 11.7,22.1211 32.11,22.1211 13.4,0 24.04,-2.3398 32.11,-4.6797 V 66.3594 c 0,-17.4375 -16.37,-29.5586 -36.57,-29.5586 m 119.11,-13.1914 c 18.93,0 30.2,9.5703 37.64,21.4804 V 25.9492 h 16.17 V 135.91 h -16.17 V 72.9609 c 0,-20.6406 -14.25,-34.4609 -32.96,-34.4609 -19.36,0 -30.42,12.7617 -30.42,33.1797 V 135.91 h -16.39 V 67.6406 c 0,-26.1601 15.54,-44.0312 42.13,-44.0312"
         style="fill:#294d62;fill-opacity:1;fill-rule:nonzero;stroke:none"
         transform="matrix(0.13333333,0,0,-0.13333333,0,602.4)" />
      <path
         id="path11"
         d="M 1229.02,924.738 614.699,1991.37 0,924.738 h 274.582 l 104.066,180.612 h 471.84 L 954.441,924.738 Z m -614.309,590.252 120.93,-210.11 h -242 z"
         style="fill:#294d62;fill-opacity:1;fill-rule:nonzero;stroke:none"
         transform="matrix(0.13333333,0,0,-0.13333333,0,602.4)" />
      <path
         id="path12"
         d="m 1761.68,1498.72 v 199.1 c -101.06,27.9 -221.65,16.97 -309.96,-67.88 v 66.1 H 1242.14 V 925.832 h 209.58 v 366.248 c 0,107.03 93.3,192 177.98,205.88 59.14,9.7 131.76,0.78 131.98,0.76"
         style="fill:#294d62;fill-opacity:1;fill-rule:nonzero;stroke:none"
         transform="matrix(0.13333333,0,0,-0.13333333,0,602.4)" />
      <path
         id="path13"
         d="m 2602.13,925.832 v 770.218 h -211.41 v -64.8 c -65.23,51 -146.45,81.62 -234.82,81.62 -214.33,0 -388.08,-178.1 -388.08,-397.81 0,-219.7 173.75,-403.458 388.08,-403.458 88.37,0 169.59,36.277 234.82,87.277 v -73.047 z m -214.4,389.228 c 0,-112.91 -91.53,-204.43 -204.42,-204.43 -112.91,0 -204.44,91.52 -204.44,204.43 0,112.9 91.53,204.44 204.44,204.44 112.89,0 204.42,-91.54 204.42,-204.44"
         style="fill:#294d62;fill-opacity:1;fill-rule:nonzero;stroke:none"
         transform="matrix(0.13333333,0,0,-0.13333333,0,602.4)" />
      <path
         id="path14"
         d="m 0,298.531 h 2602.13 v 13.617 H 0 v -13.617"
         style="fill:#294d62;fill-opacity:1;fill-rule:nonzero;stroke:none"
         transform="matrix(0.13333333,0,0,-0.13333333,0,602.4)" />
    </g>
  </g>
</svg>
