<?xml version="1.0" encoding="UTF-8" standalone="no"?>
<!-- Created with Inkscape (http://www.inkscape.org/) -->

<svg
   version="1.1"
   id="svg1"
   width="393.06668"
   height="158.52"
   viewBox="0 0 393.06668 158.52"
   sodipodi:docname="Ara logo_secondary_black_2 bylines.eps"
   xmlns:inkscape="http://www.inkscape.org/namespaces/inkscape"
   xmlns:sodipodi="http://sodipodi.sourceforge.net/DTD/sodipodi-0.dtd"
   xmlns="http://www.w3.org/2000/svg"
   xmlns:svg="http://www.w3.org/2000/svg">
  <defs
     id="defs1" />
  <sodipodi:namedview
     id="namedview1"
     pagecolor="#ffffff"
     bordercolor="#000000"
     borderopacity="0.25"
     inkscape:showpageshadow="2"
     inkscape:pageopacity="0.0"
     inkscape:pagecheckerboard="0"
     inkscape:deskcolor="#d1d1d1">
    <inkscape:page
       x="0"
       y="0"
       inkscape:label="1"
       id="page1"
       width="393.06668"
       height="158.52"
       margin="0"
       bleed="0" />
  </sodipodi:namedview>
  <g
     id="g1"
     inkscape:groupmode="layer"
     inkscape:label="1">
    <g
       id="group-R5">
      <path
         id="path2"
         d="M 842.813,286.566 686.602,15.3906 h 312.421 z"
         style="fill:#000000;fill-opacity:1;fill-rule:nonzero;stroke:none"
         transform="matrix(0.13333333,0,0,-0.13333333,0,158.52)" />
      <path
         id="path3"
         d="M 1196.6,286.41 1040.51,15.3906 h 312.38 z"
         style="fill:#000000;fill-opacity:1;fill-rule:nonzero;stroke:none"
         transform="matrix(0.13333333,0,0,-0.13333333,0,158.52)" />
      <path
         id="path4"
         d="M 665.664,27.3906 509.297,298.637 h 312.578 z"
         style="fill:#000000;fill-opacity:1;fill-rule:nonzero;stroke:none"
         transform="matrix(0.13333333,0,0,-0.13333333,0,158.52)" />
      <path
         id="path5"
         d="M 1019.77,27.3906 863.633,298.637 h 312.347 z"
         style="fill:#000000;fill-opacity:1;fill-rule:nonzero;stroke:none"
         transform="matrix(0.13333333,0,0,-0.13333333,0,158.52)" />
      <path
         id="path6"
         d="m 1019.69,593.949 156.29,-271.25 H 863.633 Z"
         style="fill:#000000;fill-opacity:1;fill-rule:nonzero;stroke:none"
         transform="matrix(0.13333333,0,0,-0.13333333,0,158.52)" />
      <path
         id="path7"
         d="m 842.813,334.848 -156.25,271.25 h 312.5 z"
         style="fill:#000000;fill-opacity:1;fill-rule:nonzero;stroke:none"
         transform="matrix(0.13333333,0,0,-0.13333333,0,158.52)" />
      <path
         id="path8"
         d="M 675.195,1187.39 835.508,910.746 319.375,15.3906 H 0 L 675.195,1187.39"
         style="fill:#000000;fill-opacity:1;fill-rule:nonzero;stroke:none"
         transform="matrix(0.13333333,0,0,-0.13333333,0,158.52)" />
      <path
         id="path9"
         d="m 1394.77,288.09 h 11.56 v 102.461 h -11.56 z m 32.38,0 h 11.25 v 43.32 c 0,14.219 9.65,23.711 22.69,23.711 13.32,0 20.94,-8.75 20.94,-22.851 v -44.18 h 11.25 v 46.992 c 0,18.008 -10.66,30.313 -28.94,30.313 -13.05,0 -20.94,-6.563 -25.94,-14.766 v 13.125 h -11.25 z m 110.78,-1.485 c 15.08,0 26.95,8.36 26.95,22.696 v 0.312 c 0,13.594 -12.58,18.164 -24.29,21.68 -10.08,3.086 -19.46,5.82 -19.46,13.008 v 0.312 c 0,6.25 5.71,10.938 14.61,10.938 7.31,0 15.39,-2.735 22.39,-7.305 l 5.11,8.477 c -7.69,5.156 -17.97,8.359 -27.19,8.359 -14.92,0 -25.74,-8.633 -25.74,-21.68 v -0.273 c 0,-13.906 13.17,-18.008 25.04,-21.367 9.92,-2.774 18.87,-5.742 18.87,-13.321 v -0.312 c 0,-7.344 -6.6,-11.992 -15.67,-11.992 -8.94,0 -18,3.515 -26.21,9.648 l -5.74,-8.008 c 8.52,-6.914 20.55,-11.172 31.33,-11.172 m 70.27,0.157 c 5.43,0 9.65,1.172 13.64,3.242 v 9.648 c -3.99,-1.875 -7.19,-2.617 -10.98,-2.617 -7.66,0 -12.77,3.36 -12.77,12.578 v 44.219 h 24.06 v 9.922 h -24.06 v 22.851 h -11.21 v -22.851 h -10.59 v -9.922 h 10.59 v -45.703 c 0,-15.352 9.17,-21.367 21.32,-21.367 m 32.66,93.554 h 12.89 v 12.461 h -12.89 z m 0.7,-92.226 h 11.29 v 75.664 h -11.29 z m 61.37,-1.328 c 5.39,0 9.65,1.172 13.59,3.242 v 9.648 c -3.94,-1.875 -7.14,-2.617 -10.97,-2.617 -7.62,0 -12.74,3.36 -12.74,12.578 v 44.219 h 24.03 v 9.922 h -24.03 v 22.851 h -11.29 v -22.851 h -10.5 v -9.922 h 10.5 v -45.703 c 0,-15.352 9.26,-21.367 21.41,-21.367 m 57.23,-0.274 c 13,0 20.78,6.602 25.89,14.766 V 288.09 h 11.14 v 75.664 h -11.14 v -43.281 c 0,-14.219 -9.8,-23.75 -22.65,-23.75 -13.36,0 -20.94,8.828 -20.94,22.851 v 44.18 h -11.29 v -46.992 c 0,-18.008 10.71,-30.274 28.99,-30.274 m 83.32,0.274 c 5.39,0 9.61,1.172 13.59,3.242 v 9.648 c -3.98,-1.875 -7.19,-2.617 -10.98,-2.617 -7.61,0 -12.77,3.36 -12.77,12.578 v 44.219 h 24.02 v 9.922 h -24.02 v 22.851 h -11.25 v -22.851 h -10.55 v -9.922 h 10.55 v -45.703 c 0,-15.352 9.22,-21.367 21.41,-21.367 m 33.94,34.57 h 60 c 0.16,1.758 0.16,2.891 0.16,3.945 0,22.227 -12.89,40.118 -35.28,40.118 -20.93,0 -36.28,-17.579 -36.28,-39.532 0,-23.593 16.95,-39.531 37.77,-39.531 14.3,0 23.55,5.703 31.13,14.219 l -6.99,6.289 c -6.13,-6.445 -13.48,-10.703 -23.87,-10.703 -13.32,0 -25.04,9.258 -26.64,25.195 m 0,9.063 c 1.6,14.648 11.56,25.468 24.61,25.468 14.92,0 22.81,-11.718 24.14,-25.468 z m 155.43,-44.063 c 22.85,0 39.69,18.164 39.69,39.531 v 0.313 c 0,21.328 -16.68,39.219 -39.38,39.219 -22.81,0 -39.49,-18.125 -39.49,-39.532 v -0.312 c 0,-21.328 16.53,-39.219 39.18,-39.219 m 0.31,10.117 c -15.93,0 -27.93,13.164 -27.93,29.414 v 0.313 c 0,15.937 11.25,29.219 27.62,29.219 15.98,0 28.13,-13.282 28.13,-29.532 v -0.312 c 0,-15.938 -11.41,-29.102 -27.82,-29.102 m 59.57,-8.359 h 11.29 v 65.742 h 23.83 v 9.648 h -23.98 v 6.133 c 0,10.86 4.37,16.094 13.2,16.094 3.79,0 6.88,-0.703 10.94,-1.875 v 9.805 c -3.63,1.328 -7.15,1.914 -12.42,1.914 -6.88,0 -12.46,-2.071 -16.25,-5.86 -4.22,-4.218 -6.61,-10.859 -6.61,-19.492 v -6.601 h -10.39 v -9.766 h 10.39 z m 142.15,-1.758 c 18.6,0 30.32,7.188 40.98,17.969 l -7.62,7.5 c -9.76,-9.375 -19.02,-14.766 -33.04,-14.766 -22.58,0 -39.69,18.594 -39.69,42.266 v 0.312 c 0,23.555 16.99,42.032 39.69,42.032 13.9,0 23.55,-5.86 32.18,-14.063 l 7.93,8.516 c -10.27,9.609 -21.4,16.25 -39.96,16.25 -30.15,0 -51.83,-24.024 -51.83,-53.047 v -0.235 c 0,-29.453 21.79,-52.734 51.36,-52.734 m 80.39,0.156 c 13.32,0 21.96,6.172 27.19,12.891 V 288.09 h 11.13 v 46.289 c 0,9.609 -2.61,16.953 -7.89,22.226 -5.43,5.43 -13.75,8.321 -24.45,8.321 -11.09,0 -19.18,-2.656 -27.5,-6.446 l 3.36,-9.179 c 7.03,3.203 14.02,5.39 22.93,5.39 14.22,0 22.42,-7.031 22.42,-20.468 v -2.383 c -6.72,1.914 -13.44,3.242 -23.12,3.242 -19.14,0 -32.35,-8.477 -32.35,-24.766 v -0.273 c 0,-15.508 14.06,-23.555 28.28,-23.555 m 2.19,9.063 c -10.27,0 -19.06,5.586 -19.06,15.078 v 0.312 c 0,9.063 8.05,15.235 22.11,15.235 9.22,0 16.56,-1.641 22.11,-3.242 v -7.071 c 0,-11.953 -11.29,-20.312 -25.16,-20.312 m 52.7,-7.461 h 11.25 v 43.32 c 0,14.219 9.64,23.711 22.69,23.711 13.32,0 20.94,-8.75 20.94,-22.851 v -44.18 h 11.25 v 46.992 c 0,18.008 -10.66,30.313 -28.99,30.313 -13,0 -20.93,-6.563 -25.89,-14.766 v 13.125 h -11.25 z m 108.12,-1.328 c 5.47,0 9.69,1.172 13.67,3.242 v 9.648 c -3.98,-1.875 -7.22,-2.617 -11.01,-2.617 -7.62,0 -12.74,3.36 -12.74,12.578 v 44.219 h 24.03 v 9.922 h -24.03 v 22.851 h -11.25 v -22.851 h -10.54 v -9.922 h 10.54 v -45.703 c 0,-15.352 9.22,-21.367 21.33,-21.367 m 34.02,34.57 h 60 c 0.16,1.758 0.16,2.891 0.16,3.945 0,22.227 -12.89,40.118 -35.27,40.118 -20.94,0 -36.33,-17.579 -36.33,-39.532 0,-23.593 16.99,-39.531 37.77,-39.531 14.34,0 23.6,5.703 31.17,14.219 l -7.03,6.289 c -6.13,-6.445 -13.43,-10.703 -23.82,-10.703 -13.32,0 -25.04,9.258 -26.65,25.195 m 0,9.063 c 1.61,14.648 11.57,25.468 24.61,25.468 14.93,0 22.78,-11.718 24.11,-25.468 z m 75.51,-42.305 h 11.29 v 30.156 c 0,22.852 13.48,34.688 30,34.688 h 0.86 v 12.148 c -14.33,0.625 -25.31,-8.477 -30.86,-21.094 v 19.766 h -11.29 z m 95.16,-1.602 c 18.28,0 36.17,14.649 36.17,39.375 v 0.313 c 0,24.844 -18.01,39.219 -36.17,39.219 -13.91,0 -22.81,-7.813 -28.99,-16.875 v 46.445 H 2642.7 V 288.09 h 11.28 v 14.492 c 5.86,-8.516 14.93,-16.094 28.99,-16.094 m -2.03,10.078 c -14.06,0 -27.39,11.719 -27.39,29.297 v 0.313 c 0,17.226 13.33,29.101 27.39,29.101 14.33,0 26.64,-11.445 26.64,-29.257 v -0.313 c 0,-18.281 -11.99,-29.141 -26.64,-29.141 m 79.49,-10.078 c 12.97,0 20.74,6.602 25.86,14.766 V 288.09 h 11.17 v 75.664 h -11.17 v -43.281 c 0,-14.219 -9.81,-23.75 -22.66,-23.75 -13.32,0 -20.93,8.828 -20.93,22.851 v 44.18 h -11.29 v -46.992 c 0,-18.008 10.7,-30.274 29.02,-30.274 m 57.97,1.602 h 11.25 v 30.156 c 0,22.852 13.44,34.688 30,34.688 h 0.9 v 12.148 c -14.38,0.625 -25.32,-8.477 -30.9,-21.094 v 19.766 h -11.25 z m 72.42,-23.867 c 11.45,0 18.75,5.703 25.2,21.406 l 31.75,78.125 h -11.99 l -24.33,-63.047 -27.5,63.047 h -12.47 l 34.42,-75.391 c -4.53,-10.703 -8.75,-14.218 -15.51,-14.218 -4.8,0 -8.2,0.898 -11.84,2.812 l -3.82,-8.906 c 5.11,-2.5 9.8,-3.828 16.09,-3.828"
         style="fill:#000000;fill-opacity:1;fill-rule:nonzero;stroke:none"
         transform="matrix(0.13333333,0,0,-0.13333333,0,158.52)" />
      <path
         id="path10"
         d="m 1546.17,15.4688 h 10.28 l 10.54,23.4804 h 48.36 l 10.47,-23.4804 h 10.74 L 1596.09,105 h -9.41 z m 24.77,32.5 20.31,45.3125 20.2,-45.3125 z m 76.44,-32.5 h 9.77 v 26.1718 c 0,19.7696 11.68,30.0782 26.01,30.0782 h 0.82 v 10.5507 c -12.5,0.5118 -22.03,-7.3476 -26.83,-18.2812 v 17.1133 h -9.77 z m 70.35,-1.3985 c 11.57,0 19.07,5.3086 23.64,11.168 v -9.7695 h 9.65 v 40.121 c 0,8.3985 -2.31,14.7305 -6.84,19.3321 -4.73,4.6484 -11.99,7.2265 -21.25,7.2265 -9.65,0 -16.6,-2.2968 -23.83,-5.5781 l 2.89,-8.0508 c 6.1,2.8086 12.19,4.6914 19.92,4.6914 12.35,0 19.46,-6.0625 19.46,-17.7421 v -2.0274 c -5.86,1.6367 -11.68,2.7695 -20.08,2.7695 -16.64,0 -28.05,-7.3398 -28.05,-21.4414 v -0.2812 c 0,-13.4297 12.15,-20.418 24.49,-20.418 m 1.92,7.8906 c -8.87,0 -16.52,4.8399 -16.52,13.0391 v 0.2383 c 0,7.8906 6.99,13.2031 19.21,13.2031 7.97,0 14.3,-1.4101 19.14,-2.7305 v -6.1406 c 0,-10.3906 -9.76,-17.6094 -21.83,-17.6094 m 92.69,-6.4921 h 9.77 v 26.1718 c 0,19.7696 11.68,30.0782 26.05,30.0782 h 0.79 v 10.5507 c -12.47,0.5118 -22.04,-7.3476 -26.84,-18.2812 v 17.1133 h -9.77 z m 70.36,-1.3985 c 11.56,0 19.06,5.3086 23.63,11.168 v -9.7695 h 9.65 v 40.121 c 0,8.3985 -2.31,14.7305 -6.84,19.3321 -4.73,4.6484 -11.99,7.2265 -21.21,7.2265 -9.69,0 -16.64,-2.2968 -23.87,-5.5781 l 2.89,-8.0508 c 6.1,2.8086 12.23,4.6914 19.93,4.6914 12.34,0 19.45,-6.0625 19.45,-17.7421 v -2.0274 c -5.86,1.6367 -11.68,2.7695 -20.08,2.7695 -16.64,0 -28.05,-7.3398 -28.05,-21.4414 v -0.2812 c 0,-13.4297 12.19,-20.418 24.5,-20.418 m 1.91,7.8906 c -8.87,0 -16.52,4.8399 -16.52,13.0391 v 0.2383 c 0,7.8906 6.99,13.2031 19.21,13.2031 7.97,0 14.34,-1.4101 19.15,-2.7305 v -6.1406 c 0,-10.3906 -9.77,-17.6094 -21.84,-17.6094 m 73.63,-7.8906 c 11.33,0 18.05,5.6992 22.5,12.8086 V 15.4688 h 9.65 v 65.6328 h -9.65 V 43.5195 c 0,-12.3086 -8.51,-20.5898 -19.69,-20.5898 -11.56,0 -18.16,7.6601 -18.16,19.8516 v 38.3203 h -9.76 V 40.3203 c 0,-15.5508 9.29,-26.25 25.11,-26.25 M 2003.71,0 c 9.65,2.14844 14.1,7.03125 14.1,17.3906 V 28.75 h -11.68 V 15.4688 h 4.61 C 2011.21,10 2008.55,6.71875 2002.19,4.42188 Z m 94.73,14.3008 c 4.72,0 8.4,1.0195 11.79,2.8086 v 8.4023 c -3.39,-1.6406 -6.17,-2.3008 -9.49,-2.3008 -6.6,0 -11.05,2.9297 -11.05,10.9297 v 38.3203 h 20.82 v 8.6407 h -20.82 v 19.8394 h -9.77 V 81.1016 h -9.14 v -8.6407 h 9.14 V 32.8516 c 0,-13.3203 8.01,-18.5508 18.52,-18.5508 m 48.9,-0.2305 c 11.53,0 19.07,5.3086 23.64,11.168 v -9.7695 h 9.65 v 40.121 c 0,8.3985 -2.31,14.7305 -6.88,19.3321 -4.69,4.6484 -11.95,7.2265 -21.17,7.2265 -9.69,0 -16.64,-2.2968 -23.91,-5.5781 l 2.93,-8.0508 c 6.1,2.8086 12.19,4.6914 19.92,4.6914 12.31,0 19.46,-6.0625 19.46,-17.7421 v -2.0274 c -5.86,1.6367 -11.68,2.7695 -20.08,2.7695 -16.64,0 -28.05,-7.3398 -28.05,-21.4414 v -0.2812 c 0,-13.4297 12.15,-20.418 24.49,-20.418 m 1.92,7.8906 c -8.91,0 -16.53,4.8399 -16.53,13.0391 v 0.2383 c 0,7.8906 7,13.2031 19.18,13.2031 8.01,0 14.34,-1.4101 19.18,-2.7305 v -6.1406 c 0,-10.3906 -9.76,-17.6094 -21.83,-17.6094 m 73.63,-7.8906 c 11.33,0 18.05,5.6992 22.46,12.8086 V 15.4688 h 9.69 v 65.6328 h -9.69 V 43.5195 c 0,-12.3086 -8.47,-20.5898 -19.65,-20.5898 -11.56,0 -18.16,7.6601 -18.16,19.8516 v 38.3203 h -9.77 V 40.3203 c 0,-15.5508 9.26,-26.25 25.12,-26.25 m 51.56,1.3985 h 9.81 v 37.4609 c 0,12.0703 7.85,20.6719 18.28,20.6719 10.39,0 16.87,-7.1914 16.87,-19.5313 V 15.4688 h 9.65 v 37.8125 c 0,12.9687 8.28,20.3203 18.13,20.3203 10.7,0 17.07,-7.1133 17.07,-19.7735 V 15.4688 h 9.76 v 40.6328 c 0,16.25 -9.25,26.3984 -24.37,26.3984 -11.45,0 -18.44,-5.8594 -23.13,-13.0781 -3.55,7.3789 -10.39,13.0781 -21.09,13.0781 -11.02,0 -16.88,-5.9297 -21.17,-12.4219 v 11.0235 h -9.81 z m 137.78,-1.3985 c 11.56,0 19.06,5.3086 23.63,11.168 v -9.7695 h 9.65 v 40.121 c 0,8.3985 -2.31,14.7305 -6.88,19.3321 -4.68,4.6484 -11.91,7.2265 -21.17,7.2265 -9.65,0 -16.64,-2.2968 -23.91,-5.5781 l 2.93,-8.0508 c 6.14,2.8086 12.19,4.6914 19.97,4.6914 12.3,0 19.41,-6.0625 19.41,-17.7421 v -2.0274 c -5.86,1.6367 -11.68,2.7695 -20.04,2.7695 -16.64,0 -28.09,-7.3398 -28.09,-21.4414 v -0.2812 c 0,-13.4297 12.19,-20.418 24.5,-20.418 m 1.91,7.8906 c -8.91,0 -16.48,4.8399 -16.48,13.0391 v 0.2383 c 0,7.8906 6.95,13.2031 19.14,13.2031 8,0 14.37,-1.4101 19.18,-2.7305 v -6.1406 c 0,-10.3906 -9.77,-17.6094 -21.84,-17.6094 M 2485,14.3008 c 4.73,0 8.4,1.0195 11.84,2.8086 v 8.4023 c -3.44,-1.6406 -6.25,-2.3008 -9.54,-2.3008 -6.6,0 -11.05,2.9297 -11.05,10.9297 v 38.3203 h 20.82 v 8.6407 h -20.82 v 19.8394 h -9.77 V 81.1016 h -9.14 v -8.6407 h 9.14 V 32.8516 c 0,-13.3203 8.01,-18.5508 18.52,-18.5508 m 48.95,-0.2305 c 11.48,0 19.02,5.3086 23.59,11.168 v -9.7695 h 9.61 v 40.121 c 0,8.3985 -2.27,14.7305 -6.84,19.3321 -4.72,4.6484 -11.95,7.2265 -21.17,7.2265 -9.69,0 -16.64,-2.2968 -23.91,-5.5781 l 2.93,-8.0508 c 6.1,2.8086 12.19,4.6914 19.93,4.6914 12.3,0 19.45,-6.0625 19.45,-17.7421 v -2.0274 c -5.86,1.6367 -11.68,2.7695 -20.08,2.7695 -16.6,0 -28.05,-7.3398 -28.05,-21.4414 v -0.2812 c 0,-13.4297 12.19,-20.418 24.54,-20.418 m 1.87,7.8906 c -8.91,0 -16.52,4.8399 -16.52,13.0391 v 0.2383 c 0,7.8906 6.99,13.2031 19.18,13.2031 8,0 14.37,-1.4101 19.18,-2.7305 v -6.1406 c 0,-10.3906 -9.77,-17.6094 -21.84,-17.6094 m 87.62,-6.4921 h 9.76 v 26.1718 c 0,19.7696 11.68,30.0782 26.06,30.0782 h 0.74 v 10.5507 c -12.42,0.5118 -21.95,-7.3476 -26.8,-18.2812 v 17.1133 h -9.76 z m 67.81,-1.3985 c 11.56,0 19.02,5.3086 23.63,11.168 v -9.7695 h 9.65 v 40.121 c 0,8.3985 -2.3,14.7305 -6.83,19.3321 -4.73,4.6484 -11.96,7.2265 -21.25,7.2265 -9.65,0 -16.65,-2.2968 -23.83,-5.5781 l 2.89,-8.0508 c 6.09,2.8086 12.19,4.6914 19.92,4.6914 12.34,0 19.45,-6.0625 19.45,-17.7421 v -2.0274 c -5.82,1.6367 -11.68,2.7695 -20.08,2.7695 -16.64,0 -28.04,-7.3398 -28.04,-21.4414 v -0.2812 c 0,-13.4297 12.19,-20.418 24.49,-20.418 m 1.91,7.8906 c -8.86,0 -16.52,4.8399 -16.52,13.0391 v 0.2383 c 0,7.8906 6.99,13.2031 19.22,13.2031 7.97,0 14.3,-1.4101 19.14,-2.7305 v -6.1406 c 0,-10.3906 -9.8,-17.6094 -21.84,-17.6094 m 71.14,-7.8906 c 11.29,0 18,5.6992 22.46,12.8086 V 15.4688 h 9.65 v 65.6328 h -9.65 V 43.5195 c 0,-12.3086 -8.52,-20.5898 -19.69,-20.5898 -11.56,0 -18.12,7.6601 -18.12,19.8516 v 38.3203 h -9.81 V 40.3203 c 0,-15.5508 9.26,-26.25 25.16,-26.25"
         style="fill:#000000;fill-opacity:1;fill-rule:nonzero;stroke:none"
         transform="matrix(0.13333333,0,0,-0.13333333,0,158.52)" />
      <path
         id="path11"
         d="M 2128.28,552.074 1761.52,1188.87 1394.49,552.074 h 163.95 l 62.11,107.852 h 281.72 l 62.07,-107.852 z m -366.76,352.383 72.19,-125.391 h -144.49 z"
         style="fill:#000000;fill-opacity:1;fill-rule:nonzero;stroke:none"
         transform="matrix(0.13333333,0,0,-0.13333333,0,158.52)" />
      <path
         id="path12"
         d="m 2446.29,894.77 v 118.87 c -60.31,16.64 -132.31,10.11 -185.04,-40.511 v 39.451 H 2136.09 V 552.738 h 125.16 V 771.41 c 0,63.867 55.66,114.61 106.25,122.891 35.31,5.781 78.67,0.469 78.79,0.469"
         style="fill:#000000;fill-opacity:1;fill-rule:nonzero;stroke:none"
         transform="matrix(0.13333333,0,0,-0.13333333,0,158.52)" />
      <path
         id="path13"
         d="m 2948.05,552.738 v 459.842 h -126.17 v -38.67 c -38.99,30.39 -87.47,48.67 -140.2,48.67 -127.97,0 -231.72,-106.287 -231.72,-237.459 0,-131.211 103.75,-240.898 231.72,-240.898 52.73,0 101.21,21.64 140.2,52.109 v -43.594 z m -127.97,232.383 c 0,-67.461 -54.65,-122.07 -122.07,-122.07 -67.42,0 -122.07,54.609 -122.07,122.07 0,67.383 54.65,122.07 122.07,122.07 67.42,0 122.07,-54.687 122.07,-122.07"
         style="fill:#000000;fill-opacity:1;fill-rule:nonzero;stroke:none"
         transform="matrix(0.13333333,0,0,-0.13333333,0,158.52)" />
      <path
         id="path14"
         d="m 1394.49,178.211 h 1553.56 v 8.117 H 1394.49 v -8.117"
         style="fill:#000000;fill-opacity:1;fill-rule:nonzero;stroke:none"
         transform="matrix(0.13333333,0,0,-0.13333333,0,158.52)" />
    </g>
  </g>
</svg>
