<?xml version="1.0" encoding="UTF-8" standalone="no"?>
<!-- Created with Inkscape (http://www.inkscape.org/) -->

<svg
   version="1.1"
   id="svg1"
   width="971.33331"
   height="391.72"
   viewBox="0 0 971.33331 391.72"
   sodipodi:docname="Ara logo_secondary_white_2 bylines.eps"
   xmlns:inkscape="http://www.inkscape.org/namespaces/inkscape"
   xmlns:sodipodi="http://sodipodi.sourceforge.net/DTD/sodipodi-0.dtd"
   xmlns="http://www.w3.org/2000/svg"
   xmlns:svg="http://www.w3.org/2000/svg">
  <defs
     id="defs1" />
  <sodipodi:namedview
     id="namedview1"
     pagecolor="#ffffff"
     bordercolor="#000000"
     borderopacity="0.25"
     inkscape:showpageshadow="2"
     inkscape:pageopacity="0.0"
     inkscape:pagecheckerboard="0"
     inkscape:deskcolor="#d1d1d1">
    <inkscape:page
       x="0"
       y="0"
       inkscape:label="1"
       id="page1"
       width="971.33331"
       height="391.72"
       margin="0"
       bleed="0" />
  </sodipodi:namedview>
  <g
     id="g1"
     inkscape:groupmode="layer"
     inkscape:label="1">
    <g
       id="group-R5">
      <path
         id="path2"
         d="M 2082.71,708.141 1696.69,38.0313 h 772.04 z"
         style="fill:#ffffff;fill-opacity:1;fill-rule:nonzero;stroke:none"
         transform="matrix(0.13333333,0,0,-0.13333333,0,391.72)" />
      <path
         id="path3"
         d="M 2956.97,707.75 2571.24,38.0313 h 771.94 z"
         style="fill:#ffffff;fill-opacity:1;fill-rule:nonzero;stroke:none"
         transform="matrix(0.13333333,0,0,-0.13333333,0,391.72)" />
      <path
         id="path4"
         d="M 1644.95,67.6719 1258.54,737.961 h 772.43 z"
         style="fill:#ffffff;fill-opacity:1;fill-rule:nonzero;stroke:none"
         transform="matrix(0.13333333,0,0,-0.13333333,0,391.72)" />
      <path
         id="path5"
         d="M 2519.98,67.6719 2134.16,737.961 H 2906 Z"
         style="fill:#ffffff;fill-opacity:1;fill-rule:nonzero;stroke:none"
         transform="matrix(0.13333333,0,0,-0.13333333,0,391.72)" />
      <path
         id="path6"
         d="M 2519.79,1467.72 2906,797.43 h -771.84 z"
         style="fill:#ffffff;fill-opacity:1;fill-rule:nonzero;stroke:none"
         transform="matrix(0.13333333,0,0,-0.13333333,0,391.72)" />
      <path
         id="path7"
         d="m 2082.71,827.449 -386.12,670.291 h 772.23 z"
         style="fill:#ffffff;fill-opacity:1;fill-rule:nonzero;stroke:none"
         transform="matrix(0.13333333,0,0,-0.13333333,0,391.72)" />
      <path
         id="path8"
         d="M 1668.5,2934.19 2064.66,2250.57 789.223,38.0313 H 0 L 1668.5,2934.19"
         style="fill:#ffffff;fill-opacity:1;fill-rule:nonzero;stroke:none"
         transform="matrix(0.13333333,0,0,-0.13333333,0,391.72)" />
      <path
         id="path9"
         d="m 3446.66,711.898 h 28.57 v 253.204 h -28.57 z m 80.02,0 h 27.8 v 107.051 c 0,35.141 23.85,58.602 56.09,58.602 32.91,0 51.74,-21.629 51.74,-56.469 V 711.898 h 27.8 v 116.133 c 0,44.489 -26.35,74.899 -71.53,74.899 -32.24,0 -51.74,-16.211 -64.1,-36.489 v 32.438 h -27.8 z m 273.76,-3.668 c 37.26,0 66.61,20.661 66.61,56.09 v 0.77 c 0,33.59 -31.09,44.89 -60.04,53.57 -24.91,7.629 -48.08,14.391 -48.08,32.149 v 0.773 c 0,15.438 14.1,27.027 36.11,27.027 18.05,0 38.03,-6.757 55.31,-18.05 l 12.64,20.941 c -19.01,12.738 -44.4,20.66 -67.18,20.66 -36.88,0 -63.62,-21.328 -63.62,-53.57 v -0.68 c 0,-34.359 32.53,-44.5 61.88,-52.801 24.52,-6.847 46.62,-14.187 46.62,-32.918 v -0.769 c 0,-18.152 -16.31,-29.633 -38.7,-29.633 -22.11,0 -44.5,8.68 -64.78,23.84 l -14.19,-19.789 c 21.05,-17.078 50.78,-27.61 77.42,-27.61 m 173.66,0.391 c 13.41,0 23.84,2.899 33.69,8.008 v 23.84 c -9.85,-4.629 -17.77,-6.457 -27.13,-6.457 -18.92,0 -31.56,8.297 -31.56,31.078 v 109.269 h 59.46 v 24.52 h -59.46 v 56.473 h -27.71 v -56.473 h -26.16 v -24.52 h 26.16 V 761.422 c 0,-37.93 22.69,-52.801 52.71,-52.801 m 80.69,231.188 h 31.86 v 30.793 h -31.86 z m 1.74,-227.911 h 27.9 v 186.981 h -27.9 z m 151.65,-3.277 c 13.32,0 23.84,2.899 33.59,8.008 v 23.84 c -9.75,-4.629 -17.66,-6.457 -27.12,-6.457 -18.83,0 -31.47,8.297 -31.47,31.078 v 109.269 h 59.36 v 24.52 h -59.36 v 56.473 h -27.9 v -56.473 h -25.97 v -24.52 h 25.97 V 761.422 c 0,-37.93 22.88,-52.801 52.9,-52.801 m 141.41,-0.68 c 32.15,0 51.36,16.321 64,36.489 v -32.532 h 27.51 v 186.981 h -27.51 V 791.922 c 0,-35.133 -24.23,-58.692 -55.99,-58.692 -33.01,0 -51.73,21.821 -51.73,56.469 v 109.18 h -27.9 V 782.75 c 0,-44.5 26.45,-74.809 71.62,-74.809 m 205.9,0.68 c 13.32,0 23.75,2.899 33.59,8.008 v 23.84 c -9.84,-4.629 -17.76,-6.457 -27.12,-6.457 -18.83,0 -31.57,8.297 -31.57,31.078 v 109.269 h 59.37 v 24.52 h -59.37 v 56.473 h -27.8 v -56.473 h -26.06 v -24.52 h 26.06 V 761.422 c 0,-37.93 22.78,-52.801 52.9,-52.801 m 83.88,85.43 h 148.27 c 0.39,4.34 0.39,7.14 0.39,9.75 0,54.918 -31.86,99.129 -87.17,99.129 -51.74,0 -89.67,-43.442 -89.67,-97.68 0,-58.309 41.89,-97.691 93.34,-97.691 35.33,0 58.21,14.089 76.94,35.132 l -17.28,15.539 c -15.16,-15.921 -33.31,-26.441 -58.98,-26.441 -32.92,0 -61.88,22.871 -65.84,62.262 m 0,22.39 c 3.96,36.2 28.58,62.938 60.82,62.938 36.87,0 56.37,-28.957 59.65,-62.938 z m 384.09,-108.882 c 56.47,0 98.08,44.882 98.08,97.691 v 0.77 c 0,52.699 -41.22,96.91 -97.31,96.91 -56.37,0 -97.59,-44.789 -97.59,-97.68 v -0.781 c 0,-52.699 40.83,-96.91 96.82,-96.91 m 0.77,25 c -39.38,0 -69.01,32.531 -69.01,72.691 v 0.77 c 0,39.378 27.8,72.199 68.24,72.199 39.48,0 69.5,-32.821 69.5,-72.969 v -0.781 c 0,-39.379 -28.18,-71.91 -68.73,-71.91 m 147.21,-20.661 h 27.9 v 162.461 h 58.88 v 23.84 h -59.27 v 15.16 c 0,26.832 10.81,39.77 32.63,39.77 9.36,0 16.99,-1.738 27.03,-4.629 v 24.219 c -8.98,3.281 -17.67,4.73 -30.7,4.73 -16.99,0 -30.79,-5.109 -40.15,-14.48 -10.43,-10.418 -16.32,-26.828 -16.32,-48.16 v -16.321 h -25.67 v -24.129 h 25.67 z m 351.27,-4.339 c 45.95,0 74.91,17.761 101.26,44.402 l -18.82,18.527 c -24.14,-23.156 -47.01,-36.476 -81.67,-36.476 -55.79,0 -98.07,45.937 -98.07,104.437 v 0.77 c 0,58.211 41.99,103.871 98.07,103.871 34.37,0 58.21,-14.481 79.54,-34.75 l 19.6,21.039 c -25.39,23.75 -52.9,40.16 -98.75,40.16 -74.52,0 -128.1,-59.367 -128.1,-131.09 v -0.578 c 0,-72.781 53.87,-130.312 126.94,-130.312 m 198.66,0.382 c 32.91,0 54.24,15.258 67.18,31.86 v -27.903 h 27.51 v 114.391 c 0,23.75 -6.47,41.891 -19.5,54.922 -13.42,13.418 -33.98,20.559 -60.42,20.559 -27.42,0 -47.4,-6.559 -67.96,-15.918 l 8.3,-22.692 c 17.37,7.922 34.66,13.32 56.66,13.32 35.14,0 55.41,-17.371 55.41,-50.582 v -5.886 c -16.6,4.73 -33.21,8.019 -57.14,8.019 -47.3,0 -79.93,-20.949 -79.93,-61.199 v -0.684 c 0,-38.316 34.75,-58.207 69.89,-58.207 m 5.4,22.399 c -25.39,0 -47.11,13.801 -47.11,37.262 v 0.769 c 0,22.391 19.89,37.649 54.64,37.649 22.78,0 40.93,-4.059 54.64,-8.008 v -17.481 c 0,-29.531 -27.9,-50.191 -62.17,-50.191 m 130.22,-18.442 h 27.8 v 107.051 c 0,35.141 23.84,58.602 56.08,58.602 32.92,0 51.74,-21.629 51.74,-56.469 V 711.898 h 27.8 v 116.133 c 0,44.489 -26.35,74.899 -71.62,74.899 -32.15,0 -51.74,-16.211 -64,-36.489 v 32.438 h -27.8 z m 267.19,-3.277 c 13.52,0 23.94,2.899 33.79,8.008 v 23.84 c -9.85,-4.629 -17.86,-6.457 -27.23,-6.457 -18.82,0 -31.46,8.297 -31.46,31.078 v 109.269 h 59.36 v 24.52 h -59.36 v 56.473 h -27.8 v -56.473 h -26.07 v -24.52 h 26.07 V 761.422 c 0,-37.93 22.78,-52.801 52.7,-52.801 m 84.08,85.43 h 148.27 c 0.38,4.34 0.38,7.14 0.38,9.75 0,54.918 -31.85,99.129 -87.16,99.129 -51.74,0 -89.78,-43.442 -89.78,-97.68 0,-58.309 41.99,-97.691 93.35,-97.691 35.43,0 58.3,14.089 77.03,35.132 l -17.38,15.539 c -15.15,-15.921 -33.2,-26.441 -58.88,-26.441 -32.92,0 -61.87,22.871 -65.83,62.262 m 0,22.39 c 3.96,36.2 28.57,62.938 60.81,62.938 36.88,0 56.28,-28.957 59.56,-62.938 z m 186.59,-104.543 h 27.89 v 74.524 c 0,56.469 33.31,85.719 74.14,85.719 h 2.12 v 30.019 c -35.42,1.551 -62.55,-20.949 -76.26,-52.121 v 48.84 h -27.89 z m 235.14,-3.957 c 45.18,0 89.39,36.2 89.39,97.309 v 0.77 c 0,61.39 -44.5,96.91 -89.39,96.91 -34.36,0 -56.37,-19.301 -71.62,-41.7 V 976 h -27.9 V 711.898 h 27.9 v 35.821 c 14.48,-21.047 36.87,-39.778 71.62,-39.778 m -5.02,24.911 c -34.75,0 -67.66,28.957 -67.66,72.398 v 0.77 c 0,42.57 32.91,71.91 67.66,71.91 35.43,0 65.84,-28.282 65.84,-72.301 v -0.77 c 0,-45.179 -29.64,-72.007 -65.84,-72.007 m 196.44,-24.911 c 32.05,0 51.26,16.321 63.9,36.489 v -32.532 h 27.61 v 186.981 h -27.61 V 791.922 c 0,-35.133 -24.23,-58.692 -55.98,-58.692 -32.92,0 -51.74,21.821 -51.74,56.469 v 109.18 h -27.9 V 782.75 c 0,-44.5 26.45,-74.809 71.72,-74.809 m 143.25,3.957 h 27.8 v 74.524 c 0,56.469 33.21,85.719 74.13,85.719 h 2.22 v 30.019 c -35.52,1.551 -62.55,-20.949 -76.35,-52.121 v 48.84 h -27.8 z m 178.96,-58.976 c 28.29,0 46.34,14.09 62.26,52.898 l 78.48,193.059 h -29.63 l -60.14,-155.797 -67.96,155.797 h -30.79 l 85.04,-186.297 c -11.19,-26.453 -21.62,-35.141 -38.32,-35.141 -11.87,0 -20.27,2.219 -29.25,6.95 l -9.46,-22.012 c 12.65,-6.18 24.23,-9.457 39.77,-9.457"
         style="fill:#ffffff;fill-opacity:1;fill-rule:nonzero;stroke:none"
         transform="matrix(0.13333333,0,0,-0.13333333,0,391.72)" />
      <path
         id="path10"
         d="m 3820.81,38.2305 h 25.38 l 26.07,58.0117 h 119.5 l 25.87,-58.0117 h 26.55 L 3944.17,259.469 h -23.26 z m 61.2,80.3085 50.19,111.973 49.91,-111.973 z m 188.91,-80.3085 h 24.13 v 64.6675 c 0,48.852 28.86,74.332 64.29,74.332 h 2.02 v 26.059 c -30.89,1.262 -54.44,-18.148 -66.31,-45.168 v 42.27 h -24.13 z M 4244.76,34.75 c 28.58,0 47.11,13.1289 58.4,27.6094 V 38.2305 H 4327 v 99.1285 c 0,20.762 -5.69,36.391 -16.89,47.782 -11.68,11.488 -29.63,17.859 -52.51,17.859 -23.84,0 -41.02,-5.691 -58.88,-13.801 l 7.14,-19.89 c 15.06,6.953 30.12,11.589 49.23,11.589 30.51,0 48.07,-14.968 48.07,-43.828 v -5.019 c -14.48,4.058 -28.86,6.859 -49.61,6.859 -41.12,0 -69.31,-18.148 -69.31,-52.9998 v -0.668 c 0,-33.2109 30.02,-50.4922 60.52,-50.4922 m 4.73,19.5 c -21.91,0 -40.83,11.9688 -40.83,32.2422 v 0.5781 c 0,19.4997 17.28,32.6287 47.49,32.6287 19.7,0 35.33,-3.48 47.3,-6.758 V 97.7891 c 0,-25.6797 -24.13,-43.5391 -53.96,-43.5391 m 229.07,-16.0195 h 24.13 v 64.6675 c 0,48.852 28.86,74.332 64.38,74.332 h 1.93 v 26.059 c -30.79,1.262 -54.44,-18.148 -66.31,-45.168 v 42.27 h -24.13 z M 4652.4,34.75 c 28.58,0 47.11,13.1289 58.41,27.6094 V 38.2305 h 23.84 v 99.1285 c 0,20.762 -5.7,36.391 -16.9,47.782 -11.67,11.488 -29.63,17.859 -52.41,17.859 -23.94,0 -41.12,-5.691 -58.98,-13.801 l 7.14,-19.89 c 15.06,6.953 30.22,11.589 49.23,11.589 30.51,0 48.08,-14.968 48.08,-43.828 v -5.019 c -14.48,4.058 -28.87,6.859 -49.62,6.859 -41.12,0 -69.31,-18.148 -69.31,-52.9998 v -0.668 C 4591.88,52.0313 4622,34.75 4652.4,34.75 m 4.73,19.5 c -21.91,0 -40.83,11.9688 -40.83,32.2422 v 0.5781 c 0,19.4997 17.28,32.6287 47.5,32.6287 19.69,0 35.42,-3.48 47.29,-6.758 V 97.7891 c 0,-25.6797 -24.13,-43.5391 -53.96,-43.5391 m 181.96,-19.5 c 27.99,0 44.6,14.0898 55.6,31.6602 V 38.2305 h 23.84 V 200.391 h -23.84 v -92.86 c 0,-30.4021 -21.04,-50.8708 -48.65,-50.8708 -28.57,0 -44.89,18.9218 -44.89,49.0388 v 94.692 h -24.13 V 99.6211 C 4777.02,61.1992 4800,34.75 4839.09,34.75 M 4951.45,0 c 23.84,5.30859 34.85,17.3789 34.85,42.9609 v 28.0899 h -28.86 V 38.2305 h 11.39 c 1.16,-13.5196 -5.41,-21.6289 -21.14,-27.3203 z m 234.08,35.332 c 11.68,0 20.76,2.5078 29.16,6.9493 v 20.75 c -8.4,-4.0508 -15.26,-5.6915 -23.46,-5.6915 -16.31,0 -27.32,7.2422 -27.32,27.0313 v 94.6879 h 51.45 v 21.332 h -51.45 v 49.039 h -24.13 v -49.039 h -22.59 v -21.332 h 22.59 V 81.1797 c 0,-32.9102 19.79,-45.8477 45.75,-45.8477 m 120.86,-0.582 c 28.47,0 47.1,13.1289 58.4,27.6094 V 38.2305 h 23.84 v 99.1285 c 0,20.762 -5.69,36.391 -16.99,47.782 -11.58,11.488 -29.53,17.859 -52.32,17.859 -23.94,0 -41.12,-5.691 -59.07,-13.801 l 7.24,-19.89 c 15.06,6.953 30.11,11.589 49.23,11.589 30.4,0 48.07,-14.968 48.07,-43.828 v -5.019 c -14.48,4.058 -28.86,6.859 -49.62,6.859 -41.12,0 -69.31,-18.148 -69.31,-52.9998 v -0.668 c 0,-33.2109 30.03,-50.4922 60.53,-50.4922 m 4.73,19.5 c -22.01,0 -40.83,11.9688 -40.83,32.2422 v 0.5781 c 0,19.4997 17.27,32.6287 47.39,32.6287 19.79,0 35.43,-3.48 47.4,-6.758 V 97.7891 c 0,-25.6797 -24.13,-43.5391 -53.96,-43.5391 m 181.95,-19.5 c 28,0 44.6,14.0898 55.51,31.6602 V 38.2305 h 23.94 V 200.391 h -23.94 v -92.86 c 0,-30.4021 -20.95,-50.8708 -48.55,-50.8708 -28.58,0 -44.89,18.9218 -44.89,49.0388 v 94.692 h -24.13 V 99.6211 c 0,-38.4219 22.87,-64.8711 62.06,-64.8711 m 127.42,3.4805 h 24.23 v 92.5705 c 0,29.82 19.4,51.058 45.18,51.058 25.68,0 41.7,-17.757 41.7,-48.257 V 38.2305 h 23.84 v 93.4415 c 0,32.039 20.47,50.187 44.79,50.187 26.45,0 42.18,-17.57 42.18,-48.839 V 38.2305 h 24.14 V 138.621 c 0,40.149 -22.88,65.25 -60.24,65.25 -28.28,0 -45.56,-14.48 -57.14,-32.34 -8.79,18.25 -25.68,32.34 -52.13,32.34 -27.22,0 -41.7,-14.672 -52.32,-30.699 v 27.219 h -24.23 z M 5960.95,34.75 c 28.57,0 47.11,13.1289 58.4,27.6094 V 38.2305 h 23.84 v 99.1285 c 0,20.762 -5.69,36.391 -16.98,47.782 -11.59,11.488 -29.45,17.859 -52.32,17.859 -23.85,0 -41.13,-5.691 -59.08,-13.801 l 7.24,-19.89 c 15.16,6.953 30.12,11.589 49.33,11.589 30.4,0 47.97,-14.968 47.97,-43.828 v -5.019 c -14.48,4.058 -28.86,6.859 -49.52,6.859 -41.12,0 -69.4,-18.148 -69.4,-52.9998 v -0.668 c 0,-33.2109 30.12,-50.4922 60.52,-50.4922 m 4.73,19.5 c -22.01,0 -40.73,11.9688 -40.73,32.2422 v 0.5781 c 0,19.4997 17.18,32.6287 47.3,32.6287 19.78,0 35.52,-3.48 47.39,-6.758 V 97.7891 c 0,-25.6797 -24.13,-43.5391 -53.96,-43.5391 m 175.1,-18.918 c 11.68,0 20.76,2.5078 29.25,6.9493 v 20.75 c -8.49,-4.0508 -15.44,-5.6915 -23.55,-5.6915 -16.31,0 -27.32,7.2422 -27.32,27.0313 v 94.6879 h 51.45 v 21.332 h -51.45 v 49.039 h -24.13 v -49.039 h -22.59 v -21.332 h 22.59 V 81.1797 c 0,-32.9102 19.79,-45.8477 45.75,-45.8477 m 120.96,-0.582 c 28.38,0 47.01,13.1289 58.3,27.6094 V 38.2305 h 23.74 v 99.1285 c 0,20.762 -5.59,36.391 -16.89,47.782 -11.68,11.488 -29.54,17.859 -52.32,17.859 -23.94,0 -41.12,-5.691 -59.07,-13.801 l 7.24,-19.89 c 15.06,6.953 30.11,11.589 49.23,11.589 30.4,0 48.07,-14.968 48.07,-43.828 v -5.019 c -14.48,4.058 -28.86,6.859 -49.62,6.859 -41.02,0 -69.3,-18.148 -69.3,-52.9998 v -0.668 c 0,-33.2109 30.11,-50.4922 60.62,-50.4922 m 4.63,19.5 c -22.01,0 -40.83,11.9688 -40.83,32.2422 v 0.5781 c 0,19.4997 17.28,32.6287 47.39,32.6287 19.79,0 35.52,-3.48 47.4,-6.758 V 97.7891 c 0,-25.6797 -24.13,-43.5391 -53.96,-43.5391 m 216.51,-16.0195 h 24.14 v 64.6675 c 0,48.852 28.86,74.332 64.38,74.332 h 1.83 v 26.059 c -30.69,1.262 -54.24,-18.148 -66.21,-45.168 v 42.27 h -24.14 z M 6650.46,34.75 c 28.57,0 47.01,13.1289 58.4,27.6094 V 38.2305 h 23.84 v 99.1285 c 0,20.762 -5.7,36.391 -16.89,47.782 -11.68,11.488 -29.54,17.859 -52.51,17.859 -23.85,0 -41.12,-5.691 -58.89,-13.801 l 7.15,-19.89 c 15.05,6.953 30.11,11.589 49.23,11.589 30.5,0 48.07,-14.968 48.07,-43.828 v -5.019 c -14.39,4.058 -28.86,6.859 -49.62,6.859 -41.12,0 -69.31,-18.148 -69.31,-52.9998 v -0.668 c 0,-33.2109 30.12,-50.4922 60.53,-50.4922 m 4.73,19.5 c -21.91,0 -40.84,11.9688 -40.84,32.2422 v 0.5781 c 0,19.4997 17.29,32.6287 47.5,32.6287 19.69,0 35.33,-3.48 47.3,-6.758 V 97.7891 c 0,-25.6797 -24.23,-43.5391 -53.96,-43.5391 m 175.78,-19.5 c 27.89,0 44.5,14.0898 55.5,31.6602 V 38.2305 h 23.84 V 200.391 h -23.84 v -92.86 c 0,-30.4021 -21.04,-50.8708 -48.65,-50.8708 -28.57,0 -44.79,18.9218 -44.79,49.0388 v 94.692 H 6768.8 V 99.6211 c 0,-38.4219 22.88,-64.8711 62.17,-64.8711"
         style="fill:#ffffff;fill-opacity:1;fill-rule:nonzero;stroke:none"
         transform="matrix(0.13333333,0,0,-0.13333333,0,391.72)" />
      <path
         id="path11"
         d="M 5259.28,1364.25 4352.97,2937.86 3445.99,1364.25 h 405.13 l 153.48,266.51 h 696.16 l 153.39,-266.51 z m -906.31,870.79 178.39,-309.87 H 4174.3 Z"
         style="fill:#ffffff;fill-opacity:1;fill-rule:nonzero;stroke:none"
         transform="matrix(0.13333333,0,0,-0.13333333,0,391.72)" />
      <path
         id="path12"
         d="m 6045.12,2211.09 v 293.74 c -149.04,41.12 -326.94,25 -457.25,-100.1 v 97.5 H 5278.59 V 1365.89 h 309.28 v 540.37 c 0,157.82 137.55,283.21 262.56,303.67 87.26,14.29 194.41,1.16 194.69,1.16"
         style="fill:#ffffff;fill-opacity:1;fill-rule:nonzero;stroke:none"
         transform="matrix(0.13333333,0,0,-0.13333333,0,391.72)" />
      <path
         id="path13"
         d="m 7285.04,1365.89 v 1136.34 h -311.79 v -95.57 c -96.34,75.1 -216.13,120.28 -346.44,120.28 -316.23,0 -572.61,-262.66 -572.61,-586.8 0,-324.24 256.38,-595.3 572.61,-595.3 130.31,0 250.1,53.48 346.44,128.77 v -107.72 z m -316.23,574.25 c 0,-166.71 -135.04,-301.66 -301.65,-301.66 -166.61,0 -301.66,134.95 -301.66,301.66 0,166.51 135.05,301.65 301.66,301.65 166.61,0 301.65,-135.14 301.65,-301.65"
         style="fill:#ffffff;fill-opacity:1;fill-rule:nonzero;stroke:none"
         transform="matrix(0.13333333,0,0,-0.13333333,0,391.72)" />
      <path
         id="path14"
         d="m 3445.99,440.371 h 3839.05 v 20.07 H 3445.99 v -20.07"
         style="fill:#ffffff;fill-opacity:1;fill-rule:nonzero;stroke:none"
         transform="matrix(0.13333333,0,0,-0.13333333,0,391.72)" />
    </g>
  </g>
</svg>
