<svg width="26" height="25" viewBox="0 0 26 25" fill="none" xmlns="http://www.w3.org/2000/svg">
<path d="M24.5 5.07218L24.453 5.02081C23.2682 3.7399 22.0243 2.91865 20.6556 2.51103L20.5457 2.47967L20.4198 2.44432C19.3426 2.16345 18.1885 2.13076 16.8149 2.34358L16.6481 2.3716L16.5608 2.38561C15.6021 2.55106 14.6325 2.81191 13.694 3.06542C13.3922 3.14682 13.0903 3.22821 12.7891 3.30693C11.5671 3.62449 10.2621 3.91803 8.96615 3.91803C7.64885 3.91803 6.47269 3.61248 5.37718 2.98403L5.59592 1.6284C5.60699 1.55902 5.60544 1.48793 5.59135 1.41919C5.57726 1.35046 5.55091 1.28543 5.51381 1.22782C5.4767 1.17021 5.42957 1.12114 5.37509 1.08341C5.32062 1.04569 5.25988 1.02005 5.19633 1.00796C5.13278 0.995871 5.06768 0.997566 5.00473 1.01295C4.94178 1.02833 4.88223 1.0571 4.82946 1.09762C4.7229 1.17944 4.65047 1.30414 4.62811 1.44427L1.00798 23.8696C0.996372 23.9388 0.997437 24.0099 1.01111 24.0788C1.02479 24.1476 1.05081 24.2128 1.08767 24.2706C1.12453 24.3284 1.17151 24.3777 1.22589 24.4155C1.28027 24.4534 1.34098 24.4792 1.40451 24.4913C1.43251 24.4972 1.46095 24.5001 1.48944 24.5C1.60435 24.4998 1.71554 24.4555 1.80347 24.3747C1.89141 24.294 1.95047 24.1819 1.97029 24.0584L3.45684 14.8551C4.50041 15.8645 5.59531 16.531 6.78552 16.8853L6.89489 16.9159L7.02197 16.9513C7.65585 17.1142 8.30517 17.1946 8.95637 17.1908C9.51587 17.1877 10.0745 17.1416 10.628 17.0527L10.7948 17.0254L10.8816 17.0113C11.8403 16.8459 12.8099 16.585 13.7484 16.3315C14.0502 16.2501 14.352 16.1687 14.6533 16.0907C15.8752 15.7731 17.1797 15.4796 18.4762 15.4796C19.8748 15.4796 21.1151 15.8238 22.2674 16.531L22.4159 16.6224L22.4477 16.4396C22.6762 15.1213 22.9047 13.8191 23.1265 12.5702V12.5615C23.3538 11.2813 23.5817 10.017 23.8035 8.80417V8.79417C24.0308 7.54928 24.2587 6.32574 24.4804 5.14757L24.5 5.07218ZM18.3754 15.2094C17.1534 15.2241 15.9284 15.4863 14.7779 15.7811C14.7779 15.7745 14.7779 15.7685 14.7779 15.7625C14.9893 14.3606 15.2003 12.9609 15.4109 11.5635C16.4178 11.3246 17.7119 11.0758 19.0115 11.1598C18.998 11.2459 18.984 11.3326 18.9705 11.4194L18.9449 11.5788C18.9253 11.7038 18.9049 11.8288 18.8838 11.9537L18.8618 12.0932C18.7047 13.1132 18.5404 14.1566 18.3754 15.2094ZM8.49507 7.80413L8.5464 7.47856C8.55617 7.41985 8.56534 7.36181 8.5745 7.30244C8.60016 7.14032 8.62583 6.97687 8.65149 6.81342C8.65183 6.80921 8.65183 6.80496 8.65149 6.80075C8.78713 5.94147 8.9246 5.06618 9.06268 4.18622C10.2847 4.17221 11.5067 3.90936 12.6602 3.61515V3.62516C12.4488 5.02971 12.2374 6.43204 12.026 7.83215C11.0185 8.07098 9.725 8.31983 8.42542 8.23577L8.45475 8.04964C8.46941 7.96491 8.48224 7.88352 8.49507 7.80146V7.80413ZM15.1995 11.34C14.6954 11.4627 14.1852 11.5995 13.6909 11.7329C13.0066 11.9177 12.3009 12.1079 11.605 12.2593C11.8168 10.861 12.0288 9.45997 12.2411 8.05631C12.7451 7.93355 13.2553 7.79679 13.7496 7.66336C14.4339 7.47856 15.1396 7.28843 15.8361 7.13699C15.6235 8.53531 15.4113 9.93631 15.1995 11.34ZM8.13948 8.47994C8.13153 8.52998 8.1242 8.57935 8.11626 8.62938C8.09915 8.73479 8.08265 8.84086 8.06555 8.94694C8.05516 9.01365 8.04538 9.07436 8.035 9.13841C8.01728 9.25116 7.99895 9.36457 7.98123 9.47798L7.9684 9.55671C7.8126 10.5361 7.6574 11.5048 7.50527 12.4508C6.28328 12.2146 5.17311 11.6622 4.11671 10.7669L4.69226 7.20103C5.73021 7.92431 6.91283 8.36306 8.13948 8.47994ZM22.9255 12.3187C21.8462 11.5234 20.5994 11.0413 19.3023 10.9177C19.309 10.8756 19.3151 10.8343 19.3218 10.7923C19.3414 10.6713 19.3605 10.551 19.3793 10.4313L19.3958 10.3293C19.4178 10.1892 19.4404 10.0484 19.4624 9.90896L19.466 9.88627C19.5247 9.5189 19.5829 9.15353 19.6408 8.79016C19.6628 8.65673 19.6844 8.52197 19.7055 8.38587V8.3792C19.733 8.20842 19.7599 8.03829 19.7874 7.86884C19.7905 7.84883 19.7935 7.82881 19.7972 7.8088L19.8723 7.3418L19.8772 7.31311C19.8968 7.19102 19.9163 7.07027 19.9353 6.94952C21.2434 7.20303 22.4287 7.82014 23.5536 8.83353C23.3471 9.95632 23.1357 11.1292 22.9243 12.3173L22.9255 12.3187ZM20.3752 2.7065C20.3275 2.9956 20.2799 3.28736 20.2322 3.58179L20.2273 3.61048C20.1434 4.1224 20.0593 4.64032 19.975 5.16425C19.9719 5.18026 19.9695 5.19694 19.9671 5.21362C19.8909 5.68417 19.8143 6.15785 19.7373 6.63463C18.6852 6.46718 17.5323 6.51921 16.1325 6.79674C16.2099 6.2866 16.2873 5.77669 16.3646 5.26699L16.449 4.71526C16.4728 4.55715 16.4966 4.39971 16.5211 4.24159C16.6025 3.69988 16.685 3.1586 16.7685 2.61777C18.1536 2.39695 19.3047 2.42497 20.3752 2.7065ZM7.06535 16.6858C7.11382 16.3922 7.1623 16.0965 7.21077 15.7985V15.7805C7.37268 14.7891 7.53704 13.779 7.69956 12.7556H7.7075C7.8297 12.7757 7.95679 12.7917 8.08388 12.8057H8.10954C8.38143 12.8337 8.65943 12.849 8.94904 12.849C9.73885 12.8402 10.5263 12.7538 11.302 12.5909C11.2641 12.8382 11.2264 13.0857 11.1889 13.3334C11.015 14.4818 10.8407 15.6275 10.6659 16.7705C9.28692 16.996 8.13581 16.968 7.06535 16.6858Z" fill="white" stroke="white" style="fill:white;fill-opacity:1;stroke:white;stroke-opacity:1;"/>
</svg>
